<svg width="22" height="19" viewBox="0 0 22 19" fill="none" xmlns="http://www.w3.org/2000/svg">
<path d="M21.4941 8.20716L15.721 0L7.50598 5.77904L11.5394 15.8485C10.7804 16.3741 10.0743 16.5487 9.28981 16.4114C6.78422 15.975 6.39685 14.3579 5.9281 11.5355C5.69078 10.1047 5.44463 8.62492 4.70717 7.34515C3.81575 5.80159 2.40066 4.87977 0.379516 4.52771L0 6.70969C1.37096 6.94799 2.231 7.48539 2.78802 8.45232C3.32542 9.38395 3.52842 10.6049 3.74318 11.8984C3.97168 13.2742 4.20802 14.6972 4.88958 15.9112C5.71922 17.3901 7.03428 18.2678 8.91029 18.5943C10.1243 18.8061 11.2668 18.5914 12.3779 17.9392C12.6633 17.7725 12.9457 17.5764 13.2272 17.3518C13.2997 17.294 13.3713 17.2351 13.4419 17.1743C13.7587 16.9037 14.0529 16.6085 14.3294 16.2966L21.499 8.215L21.4941 8.20716Z" fill="black"/>
</svg>
