<svg width="123" height="128" viewBox="0 0 123 128" fill="none" xmlns="http://www.w3.org/2000/svg">
<path fill-rule="evenodd" clip-rule="evenodd" d="M112.182 2.97643L112.232 2.93631C113.305 2.08094 114.458 1.36374 115.65 0.963154C116.802 0.576011 118.467 0.33983 120.057 1.21956C121.734 2.14738 122.383 3.78127 122.563 5.0959C122.733 6.34405 122.556 7.66609 122.224 8.93193L118.366 28.4183C118.366 28.4217 118.365 28.4251 118.364 28.4285C117.864 31.0259 116.729 33.9758 115.37 36.6621C114.007 39.356 112.297 42.0266 110.507 43.9989L110.503 44.0043L98.2057 57.4402L98.1909 57.456C97.117 58.6 96.1892 60.4101 95.675 62.4975C95.1601 64.5876 95.1482 66.5963 95.5376 68.0359L95.557 68.1078L96.0822 70.4481C97.3394 75.1555 97.8719 82.709 97.5364 87.3688L97.5363 87.3703L97.1172 93.1559C97.1171 93.1565 97.1171 93.1572 97.117 93.1578C96.9314 95.7926 96.2344 98.5403 95.3368 100.877C94.4773 103.115 93.2627 105.426 91.7796 106.862C90.2641 108.33 87.9961 111.677 86.975 113.902C86.232 115.667 84.8352 117.599 83.3454 119.284C81.7985 121.035 79.9141 122.786 78.0098 124.095L77.9888 124.11L77.9676 124.124C75.9457 125.47 73.5984 126.472 71.351 126.997C69.2209 127.494 66.6392 127.687 64.4529 126.767L64.4276 126.756L64.4024 126.745C63.8191 126.488 62.7807 126.273 61.5074 126.273C60.2684 126.273 59.1419 126.477 58.3909 126.773C56.2607 127.685 53.6935 127.519 51.5885 127.039C49.3387 126.525 46.9504 125.503 44.9559 124.023C43.1803 122.704 41.3598 121.021 39.8187 119.305C38.3177 117.634 36.8844 115.714 36.0926 113.902L36.0694 113.849L36.048 113.795C35.2063 111.676 32.8873 108.412 31.2873 106.862L31.2542 106.83L31.222 106.797C29.7936 105.337 28.5929 103.047 27.7305 100.801C26.8366 98.4739 26.1372 95.7523 25.9505 93.1629C25.9505 93.1625 25.9504 93.1621 25.9504 93.1617C25.9504 93.1616 25.9504 93.1618 25.9504 93.1617L25.5337 87.409C25.0835 82.6418 25.742 75.0981 26.985 70.4481L27.5101 68.108L27.5295 68.0362C27.9129 66.6187 27.8869 64.6206 27.3569 62.5139C26.8294 60.417 25.8946 58.5812 24.8417 57.4186C24.8402 57.4169 24.8387 57.4153 24.8372 57.4137L12.5645 44.0042L12.5596 43.9988C9.07843 40.1622 5.77739 33.4044 4.71669 28.4959L4.7104 28.4667L0.820987 8.81907C0.56207 7.50253 0.468662 6.1446 0.715792 4.88514C0.964039 3.61999 1.65059 2.08223 3.24476 1.18968C4.8278 0.303368 6.49055 0.511115 7.69587 0.940133C8.89774 1.36792 10.0249 2.13058 11.0467 3.02489L28.1745 17.6787L28.2119 17.7127C31.7856 20.9574 36.7346 26.8035 39.2388 30.9922L39.2455 31.0034L46.1973 42.8362L46.2157 42.8693C46.9128 44.1183 48.2766 45.4875 49.9929 46.5674C51.7286 47.6594 53.4114 48.1974 54.54 48.227C58.3631 48.3269 64.9142 48.3269 68.7369 48.227C69.8738 48.1972 71.5046 47.6787 73.2014 46.6079C74.868 45.5561 76.2785 44.1707 77.106 42.7915C77.1081 42.788 77.1102 42.7845 77.1123 42.781L84.0123 31.036C86.5298 26.6123 91.3946 20.8365 95.1403 17.6466C95.1428 17.6444 95.1454 17.6422 95.148 17.64L112.182 2.97643ZM97.37 20.2511C93.9069 23.1983 89.2895 28.6864 86.981 32.7515L80.0551 44.5403C77.7463 48.4021 72.7096 51.5526 68.8268 51.6544C64.9442 51.7559 58.333 51.7559 54.4502 51.6544C50.5674 51.5526 45.3207 48.3006 43.2219 44.5403L36.296 32.7515C33.9872 28.8896 29.2652 23.3 25.9072 20.2511L8.80223 5.61682C5.44442 2.66961 3.34567 3.88905 4.18512 8.15746L8.06791 27.7717C9.01227 32.1419 12.0556 38.3411 15.0987 41.6948L27.3763 55.1097C30.4196 58.4634 31.9936 64.6626 30.8392 68.9313L30.3147 71.2689C29.1603 75.537 28.5304 82.7524 28.9505 87.1226L29.3701 92.9152C29.6848 97.2854 31.7838 102.468 33.6728 104.399C35.5615 106.229 38.185 109.887 39.2345 112.529C40.3889 115.172 43.8516 118.932 46.9996 121.27C50.1478 123.607 54.7652 124.623 57.0737 123.607C57.9218 123.265 58.9246 123.038 59.97 122.926C61.1521 122.8 62.3885 122.821 63.517 122.989C64.354 123.114 65.1316 123.32 65.7837 123.607C68.1971 124.623 72.7096 123.505 76.0676 121.27C79.3205 119.034 82.7832 115.07 83.8327 112.529C84.9871 109.989 87.5057 106.229 89.3947 104.399C91.2836 102.57 93.3823 97.3869 93.6971 92.9152L94.1167 87.1226C94.4314 82.7524 93.9069 75.537 92.7524 71.2686L92.2279 68.931C91.0735 64.6626 92.5427 58.4634 95.6911 55.1094L107.968 41.6948C111.012 38.3411 114.16 32.1419 114.999 27.7717L118.882 8.15746C120.036 3.88905 117.938 2.77137 114.37 5.61682L97.37 20.2511ZM60.9849 119.424C60.8266 119.22 60.676 118.955 60.5367 118.627C60.3754 118.276 60.1754 117.879 59.9471 117.456C59.9453 117.453 59.9434 117.449 59.9416 117.446C59.4693 116.571 58.8767 115.581 58.2554 114.636C57.9301 114.141 57.597 113.658 57.2692 113.21C57.1048 112.985 56.9418 112.769 56.7818 112.565C56.6312 112.373 56.4831 112.191 56.3392 112.021C54.5688 110.307 55.1754 109.693 57.5443 110.777C57.5622 110.785 57.5803 110.794 57.5985 110.802C57.6361 110.819 57.6742 110.837 57.7127 110.853C58.0123 110.985 58.3346 111.101 58.6735 111.199C59.18 111.347 59.7237 111.457 60.2852 111.531C61.3061 111.664 62.3857 111.676 63.4061 111.565C64.0196 111.498 64.6118 111.387 65.157 111.232C65.5716 111.114 65.9591 110.971 66.3082 110.802C66.3092 110.801 66.3103 110.801 66.3114 110.801C66.3287 110.793 66.3459 110.785 66.3629 110.778C68.6268 109.794 69.2332 110.308 67.5675 112.021C67.4195 112.165 67.2702 112.318 67.1203 112.479C67.1036 112.497 67.0868 112.515 67.0701 112.533C66.8759 112.744 66.681 112.969 66.4873 113.203C66.0944 113.678 65.7065 114.193 65.3397 114.72C64.7142 115.618 64.1503 116.548 63.7285 117.366C63.7281 117.367 63.7277 117.367 63.7273 117.368C63.4872 117.833 63.2932 118.262 63.1602 118.627C62.9935 118.97 62.8185 119.245 62.6394 119.452C62.0874 120.089 61.4959 120.08 60.9849 119.424Z" fill="black"/>
</svg>
